<mxfile host="65bd71144e">
    <diagram id="dMcVg0LvvEPNjS6cMCFK" name="Page-1">
        <mxGraphModel dx="1045" dy="802" grid="1" gridSize="10" guides="1" tooltips="1" connect="1" arrows="1" fold="1" page="1" pageScale="1" pageWidth="850" pageHeight="1100" background="#ffffff" math="0" shadow="0">
            <root>
                <mxCell id="0"/>
                <mxCell id="1" parent="0"/>
                <mxCell id="104" style="edgeStyle=none;html=1;strokeColor=#000000;fontColor=#000000;" edge="1" parent="1" source="107" target="123">
                    <mxGeometry relative="1" as="geometry"/>
                </mxCell>
                <mxCell id="105" style="edgeStyle=none;html=1;strokeColor=#000000;fontColor=#000000;dashed=1;endArrow=open;endFill=0;" edge="1" parent="1" source="107" target="120">
                    <mxGeometry relative="1" as="geometry"/>
                </mxCell>
                <mxCell id="106" style="edgeStyle=none;html=1;entryX=0;entryY=0.5;entryDx=0;entryDy=0;strokeColor=#000000;fontColor=#000000;endArrow=classic;endFill=1;" edge="1" parent="1" source="107" target="137">
                    <mxGeometry relative="1" as="geometry"/>
                </mxCell>
                <mxCell id="107" value="&lt;font color=&quot;#000000&quot;&gt;Клиент&lt;/font&gt;" style="shape=umlActor;verticalLabelPosition=bottom;verticalAlign=top;html=1;outlineConnect=0;fillColor=none;strokeColor=#000000;" vertex="1" parent="1">
                    <mxGeometry x="120" y="190" width="30" height="60" as="geometry"/>
                </mxCell>
                <mxCell id="108" value="" style="rounded=0;whiteSpace=wrap;html=1;strokeColor=#000000;fillColor=none;fontColor=#000000;" vertex="1" parent="1">
                    <mxGeometry x="280" y="70" width="400" height="840" as="geometry"/>
                </mxCell>
                <mxCell id="109" value="Telegram" style="text;html=1;strokeColor=none;fillColor=none;align=center;verticalAlign=middle;whiteSpace=wrap;rounded=0;fontColor=#000000;" vertex="1" parent="1">
                    <mxGeometry x="270" y="30" width="60" height="30" as="geometry"/>
                </mxCell>
                <mxCell id="110" value="Добавление b2c бота" style="ellipse;whiteSpace=wrap;html=1;strokeColor=#7b4c4c;fontColor=#000000;fillColor=none;" vertex="1" parent="1">
                    <mxGeometry x="310" y="80" width="120" height="80" as="geometry"/>
                </mxCell>
                <mxCell id="111" style="edgeStyle=none;html=1;fontColor=#000000;strokeColor=#000000;" edge="1" parent="1" source="107" target="110">
                    <mxGeometry relative="1" as="geometry"/>
                </mxCell>
                <mxCell id="112" value="" style="rounded=0;whiteSpace=wrap;html=1;strokeColor=#7b4c4c;fontColor=#000000;fillColor=none;" vertex="1" parent="1">
                    <mxGeometry x="310" y="170" width="360" height="290" as="geometry"/>
                </mxCell>
                <mxCell id="113" value="" style="rounded=0;whiteSpace=wrap;html=1;strokeColor=#7b4c4c;fontColor=#000000;fillColor=none;" vertex="1" parent="1">
                    <mxGeometry x="310" y="500" width="360" height="400" as="geometry"/>
                </mxCell>
                <mxCell id="114" value="b2c" style="text;html=1;strokeColor=none;fillColor=none;align=center;verticalAlign=middle;whiteSpace=wrap;rounded=0;fontColor=#000000;" vertex="1" parent="1">
                    <mxGeometry x="300" y="150" width="60" height="30" as="geometry"/>
                </mxCell>
                <mxCell id="115" value="b2b" style="text;html=1;strokeColor=none;fillColor=none;align=center;verticalAlign=middle;whiteSpace=wrap;rounded=0;fontColor=#000000;" vertex="1" parent="1">
                    <mxGeometry x="300" y="470" width="60" height="30" as="geometry"/>
                </mxCell>
                <mxCell id="116" value="Запрос на регистрацию в b2b боте" style="ellipse;whiteSpace=wrap;html=1;strokeColor=#7b4c4c;fontColor=#000000;fillColor=none;" vertex="1" parent="1">
                    <mxGeometry x="350" y="270" width="120" height="80" as="geometry"/>
                </mxCell>
                <mxCell id="117" value="" style="edgeStyle=none;html=1;fontColor=#000000;" edge="1" parent="1" source="119">
                    <mxGeometry relative="1" as="geometry">
                        <mxPoint x="185" y="500" as="targetPoint"/>
                    </mxGeometry>
                </mxCell>
                <mxCell id="118" style="edgeStyle=none;html=1;strokeColor=#000000;fontColor=#000000;endArrow=classic;endFill=1;entryX=0;entryY=0.5;entryDx=0;entryDy=0;" edge="1" parent="1" source="119" target="131">
                    <mxGeometry relative="1" as="geometry"/>
                </mxCell>
                <mxCell id="119" value="Администратор" style="shape=umlActor;verticalLabelPosition=bottom;verticalAlign=top;html=1;outlineConnect=0;strokeColor=#7b4c4c;fontColor=#000000;fillColor=none;" vertex="1" parent="1">
                    <mxGeometry x="160" y="490" width="30" height="60" as="geometry"/>
                </mxCell>
                <mxCell id="120" value="Получение авторских курсов" style="ellipse;whiteSpace=wrap;html=1;strokeColor=#7b4c4c;fontColor=#000000;fillColor=none;" vertex="1" parent="1">
                    <mxGeometry x="495" y="250" width="120" height="80" as="geometry"/>
                </mxCell>
                <mxCell id="121" style="edgeStyle=none;html=1;strokeColor=#000000;fontColor=#000000;" edge="1" parent="1" source="122" target="119">
                    <mxGeometry relative="1" as="geometry"/>
                </mxCell>
                <mxCell id="122" value="Запрос на вход в b2b бота" style="ellipse;whiteSpace=wrap;html=1;strokeColor=#7b4c4c;fontColor=#000000;fillColor=none;" vertex="1" parent="1">
                    <mxGeometry x="310" y="380" width="120" height="80" as="geometry"/>
                </mxCell>
                <mxCell id="123" value="Получениесписка туров с ограниченной информацией" style="ellipse;whiteSpace=wrap;html=1;strokeColor=#7b4c4c;fontColor=#000000;fillColor=none;" vertex="1" parent="1">
                    <mxGeometry x="340" y="180" width="130" height="80" as="geometry"/>
                </mxCell>
                <mxCell id="124" style="edgeStyle=none;html=1;entryX=0;entryY=0.5;entryDx=0;entryDy=0;strokeColor=#000000;fontColor=#000000;" edge="1" parent="1" source="130" target="116">
                    <mxGeometry relative="1" as="geometry"/>
                </mxCell>
                <mxCell id="125" style="edgeStyle=none;html=1;strokeColor=#000000;fontColor=#000000;" edge="1" parent="1" source="130" target="122">
                    <mxGeometry relative="1" as="geometry"/>
                </mxCell>
                <mxCell id="126" style="edgeStyle=none;html=1;strokeColor=#000000;fontColor=#000000;endArrow=classic;endFill=1;entryX=0;entryY=0;entryDx=0;entryDy=0;" edge="1" parent="1" source="130" target="132">
                    <mxGeometry relative="1" as="geometry"/>
                </mxCell>
                <mxCell id="127" style="edgeStyle=none;html=1;strokeColor=#000000;fontColor=#000000;endArrow=classic;endFill=1;exitX=1;exitY=1;exitDx=0;exitDy=0;exitPerimeter=0;" edge="1" parent="1" source="130" target="134">
                    <mxGeometry relative="1" as="geometry"/>
                </mxCell>
                <mxCell id="128" style="edgeStyle=none;html=1;strokeColor=#000000;fontColor=#000000;endArrow=classic;endFill=1;" edge="1" parent="1" source="130" target="135">
                    <mxGeometry relative="1" as="geometry"/>
                </mxCell>
                <mxCell id="129" style="edgeStyle=none;html=1;strokeColor=#000000;fontColor=#000000;endArrow=classic;endFill=1;exitX=1;exitY=1;exitDx=0;exitDy=0;exitPerimeter=0;" edge="1" parent="1" source="130" target="138">
                    <mxGeometry relative="1" as="geometry"/>
                </mxCell>
                <mxCell id="130" value="Туроператор" style="shape=umlActor;verticalLabelPosition=bottom;verticalAlign=top;html=1;outlineConnect=0;strokeColor=#7b4c4c;fontColor=#000000;fillColor=none;" vertex="1" parent="1">
                    <mxGeometry x="140" y="370" width="30" height="60" as="geometry"/>
                </mxCell>
                <mxCell id="131" value="Решение о выдаче доступа к b2b боту конкретномупользолвателю Telegramm" style="ellipse;whiteSpace=wrap;html=1;strokeColor=#7b4c4c;fontColor=#000000;fillColor=none;" vertex="1" parent="1">
                    <mxGeometry x="320" y="780" width="210" height="110" as="geometry"/>
                </mxCell>
                <mxCell id="132" value="Получение списка туров&amp;nbsp;" style="ellipse;whiteSpace=wrap;html=1;strokeColor=#7b4c4c;fontColor=#000000;fillColor=none;" vertex="1" parent="1">
                    <mxGeometry x="550" y="520" width="120" height="80" as="geometry"/>
                </mxCell>
                <mxCell id="133" style="edgeStyle=none;html=1;strokeColor=#000000;fontColor=#000000;endArrow=classic;endFill=1;dashed=1;" edge="1" parent="1" source="134" target="136">
                    <mxGeometry relative="1" as="geometry"/>
                </mxCell>
                <mxCell id="134" value="Поиск тура по критериям" style="ellipse;whiteSpace=wrap;html=1;strokeColor=#7b4c4c;fontColor=#000000;fillColor=none;" vertex="1" parent="1">
                    <mxGeometry x="340" y="600" width="120" height="80" as="geometry"/>
                </mxCell>
                <mxCell id="135" value="Получение закреплённого сообщения с телеграмм каналом для партнёров" style="ellipse;whiteSpace=wrap;html=1;strokeColor=#7b4c4c;fontColor=#000000;fillColor=none;" vertex="1" parent="1">
                    <mxGeometry x="360" y="510" width="160" height="90" as="geometry"/>
                </mxCell>
                <mxCell id="136" value="Получение готового авторского курса" style="ellipse;whiteSpace=wrap;html=1;strokeColor=#7b4c4c;fontColor=#000000;fillColor=none;" vertex="1" parent="1">
                    <mxGeometry x="540" y="650" width="120" height="80" as="geometry"/>
                </mxCell>
                <mxCell id="137" value="Получение контактов агенства/менеджера" style="ellipse;whiteSpace=wrap;html=1;strokeColor=#7b4c4c;fontColor=#000000;fillColor=none;" vertex="1" parent="1">
                    <mxGeometry x="470" y="370" width="120" height="80" as="geometry"/>
                </mxCell>
                <mxCell id="138" value="Получение контактов агенства/менеджера" style="ellipse;whiteSpace=wrap;html=1;strokeColor=#7b4c4c;fontColor=#000000;fillColor=none;" vertex="1" parent="1">
                    <mxGeometry x="320" y="690" width="120" height="80" as="geometry"/>
                </mxCell>
            </root>
        </mxGraphModel>
    </diagram>
</mxfile>